<?xml version="1.0" encoding="UTF-8"?>
<svg xmlns="http://www.w3.org/2000/svg" viewBox="0 0 500 500">
    <style>
        path {
            stroke: black;
            stroke-width: 20;
        }
    </style>
    <path d="m202.09,81.49c-.2-.64-.38-1.3-.52-1.96.2.46.36.98.45,1.56.02.13.04.27.07.4Z" />
    <path
        d="m296.72,142.81c-2.81-.81-6.93.98-7.38,4.19-3.16,22-6.31,44.01-9.46,66.02-.74,5.18-1.48,10.35-2.23,15.53-.37,2.59-.74,5.18-1.11,7.77-.45,3.19-.14,4.41-2.32,6.73-5.29,5.62-12.07,9.11-19.82,9.59-7.12.44-15.42-.47-21.3-4.88-7.82-5.88-7.47-16.42-8.89-25.27-3.5-21.92-6.88-43.86-10.27-65.79-2.53-16.38-5.06-32.76-7.67-49.13,10.99,8.86,26.17,14.35,42.92,14.35,33.55,0,60.74-21.99,60.74-49.1s-27.19-49.11-60.74-49.11-60.74,21.99-60.74,49.11c0,4.69.81,9.23,2.33,13.53,7.88,48.36,15.01,96.84,22.81,145.22.86,5.35,1.13,10.95,3.74,15.78,2.14,3.94,5.14,7.34,8.72,10.03,6.88,5.16,15.65,7.03,24.11,7.31,8.68.29,17.58-1.74,24.84-6.64,3.65-2.47,6.92-5.44,9.74-8.83,3.76-4.51,3.54-10.86,4.35-16.51,3.94-27.51,7.88-55.01,11.82-82.52.46-3.24-.8-6.41-4.19-7.38Zm-47.43-106.06c26.75,0,48.44,16.35,48.44,36.52s-21.69,36.51-48.44,36.51c-22.99,0-42.24-12.07-47.2-28.27v-.02c-.2-.64-.38-1.3-.52-1.96-.48-2.03-.72-4.13-.72-6.26,0-20.17,21.69-36.52,48.44-36.52Z" />
    <path d="m452.91,353.07c.65.16,1.31.34,1.95.56-.5-.07-1.03-.2-1.57-.42-.12-.05-.25-.1-.38-.15Z" />
    <path
        d="m346.52,397.83c2.12-2.02,2.65-6.48.1-8.49-17.41-13.82-29.2-22.55-46.62-36.36-4.1-3.25-8.19-6.49-12.29-9.75-2.05-1.62-4.1-3.25-6.15-4.87-2.53-2-3.74-2.34-4.64-5.4-2.19-7.4-1.79-15.02,1.7-21.95,3.21-6.37,8.18-13.08,14.95-15.94,9.02-3.79,17.95,1.82,26.31,5.06,20.7,8.02,41.35,16.16,62,24.28,15.42,6.07,30.85,12.14,46.3,18.13-13.19,5.03-25.58,15.37-34.02,29.84-16.91,28.98-11.61,63.55,11.8,77.21,23.42,13.67,56.12,1.26,73.03-27.72,16.91-28.98,11.61-63.55-11.81-77.21-4.05-2.36-8.38-3.95-12.86-4.81-45.74-17.56-91.21-35.83-136.93-53.48-5.05-1.95-10.03-4.54-15.51-4.72-4.48-.14-8.93.74-13.06,2.48-7.92,3.34-13.96,9.98-18.46,17.14-4.62,7.35-7.36,16.06-6.78,24.8.29,4.4,1.21,8.72,2.72,12.86,2,5.52,7.6,8.53,12.07,12.08,21.78,17.27,37.91,29.45,59.69,46.72,2.57,2.03,5.94,2.54,8.49.1Zm121.14,17.55c-13.48,23.11-38.53,33.6-55.95,23.44-17.41-10.16-20.61-37.13-7.13-60.24,11.59-19.86,31.71-30.4,48.2-26.52h.02c.65.16,1.31.34,1.95.55,2,.61,3.93,1.46,5.77,2.53,17.42,10.16,20.61,37.14,7.13,60.24Z" />
    <path d="m93.93,434.15c-.45.49-.93.98-1.43,1.43.3-.4.67-.8,1.12-1.17.1-.08.21-.17.31-.26Z" />
    <path
        d="m109.71,318.46c.71,2.84,4.33,5.5,7.33,4.28,20.62-8.31,31.01-12.55,51.63-20.87,4.85-1.96,9.7-3.91,14.55-5.86,2.43-.98,4.85-1.96,7.28-2.94,2.99-1.21,3.88-2.09,6.99-1.37,7.52,1.76,13.94,5.87,18.24,12.33,3.95,5.94,7.33,13.57,6.47,20.87-1.16,9.71-10.45,14.7-17.4,20.37-17.2,14.03-34.49,27.96-51.75,41.9-12.9,10.41-25.8,20.82-38.65,31.29,2.15-13.95-.72-29.84-9.12-44.33-16.83-29.02-49.5-41.51-72.95-27.9s-28.84,48.16-12,77.18c16.83,29.02,49.5,41.51,72.96,27.9,4.06-2.35,7.58-5.33,10.53-8.8,37.88-31.08,76.23-61.58,114.17-92.6,4.2-3.43,8.9-6.47,11.77-11.15,2.33-3.83,3.77-8.13,4.3-12.58,1.01-8.54-1.77-17.06-5.77-24.52-4.1-7.65-10.33-14.33-18.21-18.15-3.97-1.92-8.18-3.26-12.53-3.99-5.79-.99-11.17,2.39-16.46,4.52-25.77,10.4-41.31,16.71-67.08,27.11-3.03,1.23-5.14,3.91-4.28,7.33Zm-78.17,98.32c-13.42-23.14-10.16-50.1,7.28-60.23,17.44-10.12,42.46.44,55.89,23.58,11.54,19.89,10.75,42.59-.77,55.01h-.02c-.45.5-.93.99-1.43,1.44-1.52,1.43-3.21,2.7-5.05,3.76-17.45,10.12-42.47-.44-55.9-23.58Z" />
</svg>